<svg xmlns="http://www.w3.org/2000/svg" viewBox="0 0 400 400"><title>avocados</title><rect width="400" height="400" style="fill:#9dbb2e"/><path d="M60.69,178.39a57.15,57.15,0,0,0,20.77,3.2,63.56,63.56,0,0,0,19.18-3.2A65.83,65.83,0,0,0,114.21,172a77.51,77.51,0,0,0,12-8.79,84.74,84.74,0,0,0,15.17-18.38c3.55-5.71,6.47-10.42,8-17.57a40.53,40.53,0,0,0,.8-12,33.06,33.06,0,0,0-4.79-15.18c-1.28-2-3-3.77-6.39-7.19-5.07-5.11-8.75-8.82-14.38-12.79a70.19,70.19,0,0,0-14.38-8,71.86,71.86,0,0,0-20-4.79,77.64,77.64,0,0,0-24,1.6A93.9,93.9,0,0,0,47,75.1V172l1.71.84C55.53,176.1,58.94,177.76,60.69,178.39Z" transform="translate(-47 -53)" style="fill:#68831e"/><path d="M298.72,347.72c-2.2,3.79-1.78,3.73-7,14-2.54,5-4.6,9.07-7.35,14-5.08,9.09-10.27,17.12-12.59,20.68-.67,1-3.21,5.57-7,11.28a61.19,61.19,0,0,0-5,10c-2.35,5.84-2.2,7.84-2,9,.62,3.42,2.93,5.83,5,8a21,21,0,0,0,5,4c3.05,1.74,3.87,1.13,8,3,3.72,1.69,3.49,2.39,6,3a15.73,15.73,0,0,0,7,0,16,16,0,0,0,3-1,173.75,173.75,0,0,0,16-8s5.79-3.38,13-7a200.68,200.68,0,0,1,21-9c8.67-3.17,7.58-2.11,19-6,14.75-5,19.75-7.9,23-10a61.76,61.76,0,0,0,10-8,51,51,0,0,0,11-15,46.9,46.9,0,0,0,4-13c1.06-7.31,0-12.87-1-18-1.11-5.74-1.94-10-5-15a36.78,36.78,0,0,0-8-9,40.17,40.17,0,0,0-8-5,62.91,62.91,0,0,0-19-6,68.76,68.76,0,0,0-18,0c-7.3.73-14,1.39-22,5a56.77,56.77,0,0,0-16,11A71.32,71.32,0,0,0,298.72,347.72Z" transform="translate(-47 -53)" style="fill:#68831e"/><path d="M192.88,224.87c3.12,6.33,5.59,11.33,11,16,6.44,5.54,13.14,7.25,20,9,9.4,2.39,16.92,2.2,23,2,6.38-.21,12.42-.45,20-3a56,56,0,0,0,14-7c1.33-.92,5.75-4.08,14-14,6-7.23,10.43-12.54,15-21a104.58,104.58,0,0,0,9-23,84.4,84.4,0,0,0,3-17c.56-8.26-.51-11.62-1-13a23.66,23.66,0,0,0-7-10c-1.55-1.28-5.67-4.71-11-5-.84,0-.92,0-5,0-3.77,0-4.48-.1-6,0a43,43,0,0,0-6,1,100.75,100.75,0,0,1-12,1c-1.15.06-4.12.12-8,0s-4.91-.33-8.49-.5c-5.55-.26-9.82-.06-11,0a101.47,101.47,0,0,0-12.48,1.5c-10.5,1.85-15.75,2.78-22,6a47.48,47.48,0,0,0-14,11,49.05,49.05,0,0,0-10,19,62.13,62.13,0,0,0-2,24A66,66,0,0,0,192.88,224.87Zm-1-49.93a43.13,43.13,0,0,1,7-13,42.31,42.31,0,0,1,12-10c6.73-4,12.67-5.32,20-7a63,63,0,0,1,13-2c5.3-.19,6.18.56,15,1a94.54,94.54,0,0,0,14,0c5.09-.44,5.26-1,13-2,6.36-.84,9.53-1.25,13-1,4.85.35,9.56.68,14,4,5.76,4.31,8.11,11.45,8,17a33.73,33.73,0,0,1-1,6,79.56,79.56,0,0,1-4,13,106.92,106.92,0,0,1-7,14,114.89,114.89,0,0,1-17,23,74.94,74.94,0,0,1-10,9,54.5,54.5,0,0,1-14,8c-7.28,2.72-13.29,2.86-19,3a70.84,70.84,0,0,1-19-2,51.8,51.8,0,0,1-13-5c-4.35-2.42-9.77-5.44-13-11a32.54,32.54,0,0,1-4-9,12.53,12.53,0,0,0-1-3,15.17,15.17,0,0,0-3-4c-2.39-2.54-3.2-3.1-4-4-2.36-2.64-2.69-5.93-3-9C188.26,184.69,190,179.83,191.88,174.94Z" transform="translate(-47 -53)" style="fill:#68831e"/><path d="M210.85,190.92a46.24,46.24,0,0,0,3,6,51.17,51.17,0,0,0,4,6c2.21,2.82,4,5,7,7a29.09,29.09,0,0,0,7,3,40.91,40.91,0,0,0,8,2,27.05,27.05,0,0,0,10,0,32,32,0,0,0,6-2c1.54-.67,2.7-1.3,4-2a40,40,0,0,0,5-3,27.83,27.83,0,0,0,5-5,63.39,63.39,0,0,0,5-7c1.63-2.52,2.6-4.27,3-5,.66-1.21,1.3-2.38,2-4a21.51,21.51,0,0,0,2-6,19,19,0,0,0,0-5,16.45,16.45,0,0,0-1-4,10.08,10.08,0,0,0-1-2c-.88-1.29-2-1.92-4-3-2.74-1.45-4.1-2.18-6-3s-3.22-1.4-5-2a55.5,55.5,0,0,0-9-2,76.17,76.17,0,0,0-8-1,59.16,59.16,0,0,0-9,0,35.57,35.57,0,0,0-7,1,28.28,28.28,0,0,0-10,5,29.49,29.49,0,0,0-7,8c-1.58,2.5-2.39,4.66-4,9a11.21,11.21,0,0,0-1,6A12.81,12.81,0,0,0,210.85,190.92Z" transform="translate(-47 -53)" style="fill:#68831e"/><path d="M131.47,274.31c-4.62-3.16-4.43-2.29-12-7a109.59,109.59,0,0,0-10-6,72.52,72.52,0,0,0-7-3,27.34,27.34,0,0,0-8-2,22.85,22.85,0,0,0-3,0c-3,.15-4.73.67-10,2-5.76,1.45-6,1.4-7,2-2.15,1.28-3.37,2.87-5,5-1.8,2.33-3.21,4.18-4,7-.87,3.11-.49,5.69,0,9a71.06,71.06,0,0,0,2,8c1,3.42,1.7,5.94,2,7,3,10.59,3,10.91,4,14,1.83,5.41,2.38,5.65,4,11a44.23,44.23,0,0,1,2,9c.34,3.55-.11,4.6,0,8a43.32,43.32,0,0,0,2,11c.9,3.31,2.79,8.81,7,18,3.37,7.38,5.59,12.22,10,18,3.06,4,7.38,9.55,15,14a36.57,36.57,0,0,0,13,5c8.07,1.36,14.42-.59,19-2a58.56,58.56,0,0,0,16-8,58.66,58.66,0,0,0,11-9,44,44,0,0,0,8-11,43.25,43.25,0,0,0,4-13,53.51,53.51,0,0,0,0-18,57.71,57.71,0,0,0-6-17c-1.4-2.62-1.11-1.62-9-13-6.1-8.8-7.38-11-11-15-2.08-2.3-3.87-4-7-7-1.75-1.68-5.25-5-10-9A119.85,119.85,0,0,0,131.47,274.31Zm24,26c5.89,6.76,11.47,13.23,17,23,3.82,6.76,7.24,12.93,9,22,.9,4.64,2.16,11.54,0,20a43.11,43.11,0,0,1-6,13c-4.79,7.07-10.34,10.87-15,14a62.51,62.51,0,0,1-20,9c-4.52,1-9.08,2.07-15,1a28.37,28.37,0,0,1-12-5c-.92-.67-1.11-.91-10-11a65.74,65.74,0,0,1-5-6,52.69,52.69,0,0,1-5-9c-2.74-5.94-5-10.45-7-17-1-3.49-1.64-6.32-2-8-.85-4.05-1.36-7.57-2-12-.74-5.11-.6-5-1-7-.73-3.6-1.24-4.23-3-10-1.57-5.13-3-10.52-3.74-13.47-.71-2.74-.82-3.26-1.25-4.51-1.14-3.25-2-4.46-3.21-8.09a23.17,23.17,0,0,1-.78-2.89,59.18,59.18,0,0,1-1-8c-.42-4.76-.22-6.07,0-7a14.18,14.18,0,0,1,3-6c1-1.17,2.19-2.06,6-4,4.63-2.34,6.94-3.51,9-4,4.86-1.14,8.88-.05,13,1a44.4,44.4,0,0,1,10,4,53.15,53.15,0,0,1,5,3c12.33,8.29,16.1,9.69,23,15C144.49,287.73,148.68,292.53,155.44,300.28Z" transform="translate(-47 -53)" style="fill:#68831e"/><path d="M130,312.77a32.54,32.54,0,0,0-5-2,26.66,26.66,0,0,0-5-1,11.14,11.14,0,0,0-3,0,12.66,12.66,0,0,0-3,1,10.56,10.56,0,0,0-2,1,8.62,8.62,0,0,0-2,2,13.47,13.47,0,0,0-2,4,20.67,20.67,0,0,0-1,5,28.11,28.11,0,0,0,0,4c0,.29,0,2.85,0,8-.05,4.58-.14,5.59,0,8a66.88,66.88,0,0,0,1,8,50,50,0,0,0,2,9,36.46,36.46,0,0,0,4,8,37.42,37.42,0,0,0,4,5c2.57,2.77,4.24,4.58,7,6a19.91,19.91,0,0,0,8,2,26.52,26.52,0,0,0,10-1,28.22,28.22,0,0,0,8-4,28.1,28.1,0,0,0,6-5,23.5,23.5,0,0,0,6-13,27.91,27.91,0,0,0,0-7,39.81,39.81,0,0,0-2-9,31.92,31.92,0,0,0-3-7,31.24,31.24,0,0,0-6-7,65.64,65.64,0,0,0-9-7c-2.13-1.46-4.81-3.19-8-5A36,36,0,0,0,130,312.77Z" transform="translate(-47 -53)" style="fill:#68831e"/><path d="M425.55,86.51c-5.83,3.32-4.94,2.95-9.59,5.59-13.6,7.71-15.55,7.69-20.77,12-6.94,5.71-8.9,10.21-9.58,12a22.25,22.25,0,0,0-1.6,8,22.83,22.83,0,0,0,.09,2.88c0,.16.08.9.23,1.88.1.66.2,1.14.31,1.67s.26,1.3.52,2.31a39,39,0,0,0,1.25,4,27.75,27.75,0,0,0,6.39,8c1.7,1.37,3.79,2.24,8,4,3,1.26,4.9,1.86,6.39,2.4,4.72,1.7,6.44,3.14,13.58,7.19,3.68,2.08,7.51,4.05,15.18,8,4.91,2.52,8.73,4.41,11.07,5.55V75.1c-.86.37-1.62.72-2.28,1C439.78,78.37,435,81.08,425.55,86.51Z" transform="translate(-47 -53)" style="fill:#68831e"/></svg>